<svg width="16" height="18" viewBox="0 0 16 18" fill="none" xmlns="http://www.w3.org/2000/svg">
<path d="M13.8333 0.666504H2.16667C1.24167 0.666504 0.5 1.4165 0.5 2.33317V13.9998C0.5 14.9165 1.25 15.6665 2.16667 15.6665H5.5L7.40833 17.5748C7.73333 17.8998 8.25833 17.8998 8.58333 17.5748L10.5 15.6665H13.8333C14.75 15.6665 15.5 14.9165 15.5 13.9998V2.33317C15.5 1.4165 14.75 0.666504 13.8333 0.666504ZM8.83333 13.9998H7.16667V12.3332H8.83333V13.9998ZM10.5583 7.5415L9.80833 8.30817C9.325 8.79984 8.98333 9.22484 8.875 10.0248C8.825 10.3832 8.53333 10.6582 8.16667 10.6582H7.90833C7.475 10.6582 7.14167 10.2748 7.2 9.8415C7.29167 9.08317 7.64167 8.40817 8.15 7.8915L9.18333 6.8415C9.48333 6.5415 9.66667 6.12484 9.66667 5.6665C9.66667 4.74984 8.91667 3.99984 8 3.99984C7.275 3.99984 6.65 4.47484 6.425 5.12484C6.31667 5.43317 6.05833 5.65817 5.73333 5.65817H5.48333C5 5.65817 4.66667 5.1915 4.8 4.72484C5.20833 3.3415 6.48333 2.33317 8 2.33317C9.84167 2.33317 11.3333 3.82484 11.3333 5.6665C11.3333 6.39984 11.0333 7.0665 10.5583 7.5415Z" fill="#050A41"/>
</svg>
