<svg width="18" height="16" viewBox="0 0 18 16" fill="none" xmlns="http://www.w3.org/2000/svg">
<path d="M10.4166 11.5833C10.7416 11.2583 10.7416 10.7417 10.4166 10.4167L8.83331 8.83333H16.5C16.9583 8.83333 17.3333 8.45833 17.3333 8C17.3333 7.54167 16.9583 7.16667 16.5 7.16667H8.83331L10.4166 5.58333C10.7416 5.25833 10.7416 4.74167 10.4166 4.41667C10.0916 4.09167 9.57498 4.09167 9.24998 4.41667L6.25831 7.40833C5.93331 7.73333 5.93331 8.25833 6.25831 8.58333L9.24998 11.5833C9.57498 11.9083 10.0916 11.9083 10.4166 11.5833ZM2.33331 2.16667H8.16665C8.62498 2.16667 8.99998 1.79167 8.99998 1.33333C8.99998 0.875 8.62498 0.5 8.16665 0.5H2.33331C1.41665 0.5 0.666645 1.25 0.666645 2.16667V13.8333C0.666645 14.75 1.41665 15.5 2.33331 15.5H8.16665C8.62498 15.5 8.99998 15.125 8.99998 14.6667C8.99998 14.2083 8.62498 13.8333 8.16665 13.8333H2.33331V2.16667Z" fill="#FF3B30"/>
</svg>
