<svg width="16" height="16" viewBox="0 0 16 20" fill="none" xmlns="http://www.w3.org/2000/svg">
<path d="M7.5 0.850236C3.51667 1.10857 0.5 4.60024 0.5 8.5919V14.1669C0.5 15.5502 1.61667 16.6669 3 16.6669H3.83333C4.75 16.6669 5.5 15.9169 5.5 15.0002V11.6669C5.5 10.7502 4.75 10.0002 3.83333 10.0002H2.16667V8.57524C2.16667 5.37524 4.63333 2.5919 7.825 2.50024C11.1333 2.40857 13.8333 5.05024 13.8333 8.33357V10.0002H12.1667C11.25 10.0002 10.5 10.7502 10.5 11.6669V15.0002C10.5 15.9169 11.25 16.6669 12.1667 16.6669H13.8333V17.5002H8.83333C8.375 17.5002 8 17.8752 8 18.3336C8 18.7919 8.375 19.1669 8.83333 19.1669H13C14.3833 19.1669 15.5 18.0502 15.5 16.6669V8.33357C15.5 4.02524 11.8667 0.566903 7.5 0.850236Z" fill="#050A41"/>
</svg>
