<svg width="16" height="16" viewBox="0 0 16 16" fill="none" xmlns="http://www.w3.org/2000/svg">
    <g clip-path="url(#clip0_519_10972)">
        <path
            d="M12.3688 15.3596C11.5262 16.2012 10.5964 16.07 9.71023 15.6732C8.76806 15.2684 7.90674 15.2428 6.91171 15.6732C5.67258 16.2236 5.01493 16.0636 4.26866 15.3596C0.0553268 10.8956 0.677221 4.09562 5.4658 3.83962C6.62719 3.90362 7.44032 4.50042 8.1244 4.55002C9.14119 4.33722 10.1145 3.72762 11.2028 3.80762C12.5103 3.91642 13.4882 4.44762 14.1412 5.40281C11.4515 7.06681 12.089 10.7148 14.5594 11.7388C14.065 13.0748 13.4307 14.3948 12.3673 15.3708L12.3688 15.3596ZM8.03111 3.79162C7.90518 1.80762 9.46769 0.175625 11.265 0.015625C11.5122 2.30362 9.24381 4.01562 8.03111 3.79162Z"
            fill="white" />
    </g>
    <defs>
        <clipPath id="clip0_519_10972">
            <rect width="16" height="16" fill="white" />
        </clipPath>
    </defs>
</svg>
