<svg width="24" height="20" viewBox="0 0 24 20" fill="none" xmlns="http://www.w3.org/2000/svg">
<path d="M21.3333 10.0003C21.3333 9.11366 21.835 8.34366 22.57 7.94699C23.27 7.56199 23.6667 6.76866 23.6667 5.96366V3.00033C23.6667 1.71699 22.6167 0.666992 21.3333 0.666992H2.66668C1.38334 0.666992 0.34501 1.70533 0.34501 2.98866V5.96366C0.34501 6.76866 0.73001 7.56199 1.44168 7.93533C2.17668 8.34366 2.66668 9.11366 2.66668 10.0003C2.66668 10.887 2.16501 11.6687 1.43001 12.0537C0.73001 12.4387 0.333344 13.232 0.333344 14.037V16.662C0.333344 18.2837 1.38334 19.3337 2.66668 19.3337H21.3333C22.6167 19.3337 23.6667 18.2837 23.6667 17.0003V14.037C23.6667 13.232 23.27 12.4387 22.57 12.0537C21.835 11.657 21.3333 10.887 21.3333 10.0003V10.0003ZM14.9167 14.7837L12 12.917L9.08334 14.7953C8.64001 15.0753 8.06834 14.667 8.20834 14.1537L9.08334 10.7937L6.40001 8.60033C5.99168 8.26199 6.20168 7.59699 6.73834 7.56199L10.1917 7.36366L11.4517 4.15533C11.65 3.66533 12.35 3.66533 12.5367 4.15533L13.7967 7.37533L17.25 7.57366C17.775 7.60866 17.9967 8.27366 17.5883 8.61199L14.905 10.8053L15.7917 14.142C15.9317 14.667 15.36 15.0753 14.9167 14.7837V14.7837Z" fill="#FFC100"/>
</svg>
